<?xml version="1.0" encoding="UTF-8"?>
<svg xmlns="http://www.w3.org/2000/svg" xmlns:xlink="http://www.w3.org/1999/xlink" width="200px" height="200px" viewBox="0 0 200 200" version="1.1">
<g id="surface1">
<path style=" stroke:none;fill-rule:nonzero;fill:rgb(14.901961%,65.882353%,42.352941%);fill-opacity:1;" d="M 82.746094 62.144531 L 55.367188 31.480469 C 58.773438 27.96875 59.371094 22.433594 56.511719 18.226562 C 53.242188 13.414062 46.6875 12.160156 41.875 15.429688 L 28.207031 24.710938 C 23.394531 27.980469 22.140625 34.535156 25.410156 39.351562 C 28.289062 43.585938 33.703125 45.0625 38.242188 43.132812 L 51.15625 62.148438 Z M 82.746094 62.144531 "/>
<path style=" stroke:none;fill-rule:nonzero;fill:rgb(14.901961%,65.882353%,42.352941%);fill-opacity:1;" d="M 65.609375 62.144531 L 45.304688 38.558594 L 49.011719 36.027344 C 47.644531 36.957031 46.132812 37.519531 44.597656 37.742188 L 44.515625 37.644531 L 44.347656 37.773438 C 40.5625 38.222656 36.664062 36.601562 34.375 33.230469 C 31.242188 28.617188 32.261719 22.410156 36.585938 19.019531 L 28.207031 24.710938 C 23.390625 27.980469 22.140625 34.535156 25.410156 39.351562 C 28.285156 43.585938 33.703125 45.0625 38.242188 43.132812 L 51.15625 62.148438 Z M 65.609375 62.144531 "/>
<path style=" stroke:none;fill-rule:nonzero;fill:rgb(14.901961%,65.882353%,42.352941%);fill-opacity:1;" d="M 185.453125 88.945312 L 14.546875 88.945312 C 6.511719 88.945312 0 82.433594 0 74.398438 C 0 66.367188 6.511719 59.851562 14.546875 59.851562 L 185.453125 59.851562 C 193.488281 59.851562 200 66.367188 200 74.398438 C 200 82.433594 193.488281 88.945312 185.453125 88.945312 Z M 185.453125 88.945312 "/>
<path style=" stroke:none;fill-rule:nonzero;fill:rgb(14.901961%,65.882353%,42.352941%);fill-opacity:1;" d="M 31.183594 74.398438 C 31.183594 66.367188 37.695312 59.851562 45.730469 59.851562 L 14.546875 59.851562 C 6.511719 59.851562 0 66.367188 0 74.398438 C 0 82.433594 6.511719 88.945312 14.546875 88.945312 L 45.730469 88.945312 C 37.695312 88.945312 31.183594 82.433594 31.183594 74.398438 Z M 31.183594 74.398438 "/>
<path style=" stroke:none;fill-rule:nonzero;fill:rgb(14.901961%,65.882353%,42.352941%);fill-opacity:1;" d="M 186.613281 88.949219 C 186.613281 90.945312 186.546875 92.921875 186.410156 94.878906 C 184.1875 127.824219 163.53125 155.71875 134.664062 168.339844 L 134.664062 175.492188 C 134.664062 181.511719 129.785156 186.390625 123.761719 186.390625 L 76.234375 186.390625 C 70.214844 186.390625 65.335938 181.515625 65.335938 175.492188 L 65.335938 168.339844 C 36.472656 155.71875 15.8125 127.824219 13.585938 94.878906 C 13.453125 92.917969 13.386719 90.945312 13.386719 88.949219 Z M 186.613281 88.949219 "/>
<path style=" stroke:none;fill-rule:nonzero;fill:rgb(14.901961%,65.882353%,42.352941%);fill-opacity:1;" d="M 186.613281 88.949219 C 186.613281 90.945312 186.546875 92.921875 186.410156 94.878906 C 186.09375 94.902344 185.773438 94.910156 185.453125 94.910156 L 14.546875 94.910156 C 14.222656 94.910156 13.902344 94.902344 13.585938 94.878906 C 13.453125 92.921875 13.386719 90.945312 13.386719 88.949219 Z M 186.613281 88.949219 "/>
<path style=" stroke:none;fill-rule:nonzero;fill:rgb(14.901961%,65.882353%,42.352941%);fill-opacity:1;" d="M 86.429688 186.390625 L 76.234375 186.390625 C 70.214844 186.390625 65.335938 181.511719 65.335938 175.492188 L 65.335938 168.339844 C 34.757812 154.96875 13.386719 124.453125 13.386719 88.949219 L 50.527344 88.949219 C 50.527344 124.453125 62.734375 154.96875 80.203125 168.339844 L 80.203125 175.492188 C 80.203125 181.511719 82.988281 186.390625 86.429688 186.390625 Z M 86.429688 186.390625 "/>
<path style=" stroke:none;fill-rule:nonzero;fill:rgb(14.901961%,65.882353%,42.352941%);fill-opacity:1;" d="M 65.335938 168.339844 L 134.664062 168.339844 L 134.664062 175.496094 L 65.335938 175.496094 Z M 65.335938 168.339844 "/>
</g>
</svg>
